<mxfile host="app.diagrams.net" agent="Mozilla/5.0 (Windows NT 10.0; Win64; x64) AppleWebKit/537.36 (KHTML, like Gecko) Chrome/130.0.0.0 Safari/537.36 Edg/130.0.0.0" version="24.8.4">
  <diagram name="Page-1" id="R4oUnXEX5q20q0ZjOsXm">
    <mxGraphModel dx="1891" dy="1398" grid="1" gridSize="10" guides="1" tooltips="1" connect="1" arrows="1" fold="1" page="1" pageScale="1" pageWidth="850" pageHeight="1100" math="0" shadow="0">
      <root>
        <mxCell id="0" />
        <mxCell id="1" parent="0" />
        <mxCell id="-VKP0Ubq2Tjm4UeMK1Hv-55" value="" style="rounded=1;whiteSpace=wrap;html=1;fillColor=#dae8fc;strokeColor=#6c8ebf;" parent="1" vertex="1">
          <mxGeometry x="490" y="160" width="227.5" height="430" as="geometry" />
        </mxCell>
        <mxCell id="-VKP0Ubq2Tjm4UeMK1Hv-72" value="" style="rounded=1;whiteSpace=wrap;html=1;fillColor=#fff2cc;strokeColor=#d6b656;" parent="1" vertex="1">
          <mxGeometry x="250" y="160" width="226.25" height="100" as="geometry" />
        </mxCell>
        <mxCell id="-VKP0Ubq2Tjm4UeMK1Hv-75" value="" style="rounded=1;whiteSpace=wrap;html=1;fillColor=#fff2cc;strokeColor=#d6b656;" parent="1" vertex="1">
          <mxGeometry x="250" y="270" width="225" height="100" as="geometry" />
        </mxCell>
        <mxCell id="-VKP0Ubq2Tjm4UeMK1Hv-78" value="" style="rounded=1;whiteSpace=wrap;html=1;fillColor=#fff2cc;strokeColor=#d6b656;" parent="1" vertex="1">
          <mxGeometry x="250" y="490" width="223.75" height="100" as="geometry" />
        </mxCell>
        <mxCell id="-VKP0Ubq2Tjm4UeMK1Hv-81" value="" style="rounded=1;whiteSpace=wrap;html=1;fillColor=#fff2cc;strokeColor=#d6b656;" parent="1" vertex="1">
          <mxGeometry x="250" y="380" width="223.75" height="100" as="geometry" />
        </mxCell>
        <mxCell id="-VKP0Ubq2Tjm4UeMK1Hv-50" value="" style="rounded=1;whiteSpace=wrap;html=1;fillColor=#dae8fc;strokeColor=#6c8ebf;" parent="1" vertex="1">
          <mxGeometry x="130" y="270" width="105" height="320" as="geometry" />
        </mxCell>
        <mxCell id="-VKP0Ubq2Tjm4UeMK1Hv-4" value="" style="endArrow=none;html=1;rounded=0;strokeWidth=1;dashed=1;dashPattern=1 1;" parent="1" edge="1">
          <mxGeometry width="50" height="50" relative="1" as="geometry">
            <mxPoint x="125" y="140" as="sourcePoint" />
            <mxPoint x="725" y="140" as="targetPoint" />
          </mxGeometry>
        </mxCell>
        <mxCell id="-VKP0Ubq2Tjm4UeMK1Hv-5" value="" style="endArrow=none;html=1;rounded=0;dashed=1;dashPattern=1 1;" parent="1" edge="1">
          <mxGeometry width="50" height="50" relative="1" as="geometry">
            <mxPoint x="245" y="630" as="sourcePoint" />
            <mxPoint x="245" y="120" as="targetPoint" />
          </mxGeometry>
        </mxCell>
        <mxCell id="-VKP0Ubq2Tjm4UeMK1Hv-6" value="" style="endArrow=none;html=1;rounded=0;dashed=1;dashPattern=1 1;" parent="1" edge="1">
          <mxGeometry width="50" height="50" relative="1" as="geometry">
            <mxPoint x="365" y="630" as="sourcePoint" />
            <mxPoint x="365" y="120" as="targetPoint" />
          </mxGeometry>
        </mxCell>
        <mxCell id="-VKP0Ubq2Tjm4UeMK1Hv-7" value="" style="endArrow=none;html=1;rounded=0;dashed=1;dashPattern=1 1;" parent="1" edge="1">
          <mxGeometry width="50" height="50" relative="1" as="geometry">
            <mxPoint x="485" y="630" as="sourcePoint" />
            <mxPoint x="485" y="120" as="targetPoint" />
          </mxGeometry>
        </mxCell>
        <mxCell id="-VKP0Ubq2Tjm4UeMK1Hv-8" value="" style="endArrow=classic;html=1;rounded=0;fillColor=#d5e8d4;strokeColor=#82b366;" parent="1" edge="1">
          <mxGeometry width="50" height="50" relative="1" as="geometry">
            <mxPoint x="125" y="60" as="sourcePoint" />
            <mxPoint x="725" y="60" as="targetPoint" />
          </mxGeometry>
        </mxCell>
        <mxCell id="-VKP0Ubq2Tjm4UeMK1Hv-9" value="Flow of Work" style="text;html=1;align=center;verticalAlign=middle;whiteSpace=wrap;rounded=0;fontStyle=1" parent="1" vertex="1">
          <mxGeometry x="385" y="30" width="80" height="30" as="geometry" />
        </mxCell>
        <mxCell id="-VKP0Ubq2Tjm4UeMK1Hv-10" value="&lt;b&gt;Raw Data&lt;/b&gt;" style="text;html=1;align=center;verticalAlign=middle;whiteSpace=wrap;rounded=0;" parent="1" vertex="1">
          <mxGeometry x="55" y="50" width="60" height="30" as="geometry" />
        </mxCell>
        <mxCell id="-VKP0Ubq2Tjm4UeMK1Hv-11" value="&lt;b&gt;Final Outputs&lt;/b&gt;" style="text;html=1;align=center;verticalAlign=middle;whiteSpace=wrap;rounded=0;" parent="1" vertex="1">
          <mxGeometry x="735" y="50" width="80" height="30" as="geometry" />
        </mxCell>
        <mxCell id="-VKP0Ubq2Tjm4UeMK1Hv-12" value="Data Ingestion" style="text;html=1;align=center;verticalAlign=middle;whiteSpace=wrap;rounded=0;" parent="1" vertex="1">
          <mxGeometry x="125" y="110" width="120" height="30" as="geometry" />
        </mxCell>
        <mxCell id="-VKP0Ubq2Tjm4UeMK1Hv-13" value="Data Processing" style="text;html=1;align=center;verticalAlign=middle;whiteSpace=wrap;rounded=0;" parent="1" vertex="1">
          <mxGeometry x="245" y="110" width="120" height="30" as="geometry" />
        </mxCell>
        <mxCell id="-VKP0Ubq2Tjm4UeMK1Hv-14" value="Elementary indexes" style="text;html=1;align=center;verticalAlign=middle;whiteSpace=wrap;rounded=0;" parent="1" vertex="1">
          <mxGeometry x="365" y="105" width="120" height="40" as="geometry" />
        </mxCell>
        <mxCell id="-VKP0Ubq2Tjm4UeMK1Hv-15" value="" style="endArrow=none;html=1;rounded=0;dashed=1;dashPattern=1 1;" parent="1" edge="1">
          <mxGeometry width="50" height="50" relative="1" as="geometry">
            <mxPoint x="605" y="630" as="sourcePoint" />
            <mxPoint x="605" y="120" as="targetPoint" />
          </mxGeometry>
        </mxCell>
        <mxCell id="-VKP0Ubq2Tjm4UeMK1Hv-16" value="Aggregation" style="text;html=1;align=center;verticalAlign=middle;whiteSpace=wrap;rounded=0;" parent="1" vertex="1">
          <mxGeometry x="485" y="110" width="120" height="30" as="geometry" />
        </mxCell>
        <mxCell id="-VKP0Ubq2Tjm4UeMK1Hv-17" value="Finalization" style="text;html=1;align=center;verticalAlign=middle;whiteSpace=wrap;rounded=0;" parent="1" vertex="1">
          <mxGeometry x="605" y="110" width="120" height="30" as="geometry" />
        </mxCell>
        <mxCell id="-VKP0Ubq2Tjm4UeMK1Hv-28" style="edgeStyle=orthogonalEdgeStyle;rounded=0;orthogonalLoop=1;jettySize=auto;html=1;entryX=0;entryY=0.5;entryDx=0;entryDy=0;" parent="1" target="-VKP0Ubq2Tjm4UeMK1Hv-30" edge="1">
          <mxGeometry relative="1" as="geometry">
            <mxPoint x="690" y="345" as="sourcePoint" />
          </mxGeometry>
        </mxCell>
        <mxCell id="-VKP0Ubq2Tjm4UeMK1Hv-30" value="&lt;b&gt;CPI&lt;/b&gt;" style="text;html=1;align=center;verticalAlign=middle;whiteSpace=wrap;rounded=0;strokeColor=default;" parent="1" vertex="1">
          <mxGeometry x="765" y="330" width="60" height="30" as="geometry" />
        </mxCell>
        <mxCell id="-VKP0Ubq2Tjm4UeMK1Hv-51" value="Corporate IT" style="text;html=1;align=center;verticalAlign=middle;whiteSpace=wrap;rounded=0;" parent="1" vertex="1">
          <mxGeometry x="140" y="550" width="85" height="30" as="geometry" />
        </mxCell>
        <mxCell id="-VKP0Ubq2Tjm4UeMK1Hv-53" value="&lt;b&gt;System&lt;/b&gt;" style="ellipse;whiteSpace=wrap;html=1;fillColor=#d5e8d4;strokeColor=#82b366;" parent="1" vertex="1">
          <mxGeometry x="510" y="170" width="190" height="330" as="geometry" />
        </mxCell>
        <mxCell id="-VKP0Ubq2Tjm4UeMK1Hv-57" value="Corporate IT" style="text;html=1;align=center;verticalAlign=middle;whiteSpace=wrap;rounded=0;" parent="1" vertex="1">
          <mxGeometry x="622.5" y="550" width="85" height="30" as="geometry" />
        </mxCell>
        <mxCell id="-VKP0Ubq2Tjm4UeMK1Hv-65" value="&lt;b&gt;System&lt;/b&gt;" style="ellipse;whiteSpace=wrap;html=1;aspect=fixed;fillColor=#d5e8d4;strokeColor=#82b366;" parent="1" vertex="1">
          <mxGeometry x="278.75" y="290" width="50" height="50" as="geometry" />
        </mxCell>
        <mxCell id="-VKP0Ubq2Tjm4UeMK1Hv-68" value="&lt;b&gt;System&lt;/b&gt;" style="ellipse;whiteSpace=wrap;html=1;aspect=fixed;fillColor=#d5e8d4;strokeColor=#82b366;" parent="1" vertex="1">
          <mxGeometry x="277.5" y="510" width="50" height="50" as="geometry" />
        </mxCell>
        <mxCell id="-VKP0Ubq2Tjm4UeMK1Hv-71" value="&lt;b&gt;System&lt;/b&gt;" style="ellipse;whiteSpace=wrap;html=1;aspect=fixed;fillColor=#d5e8d4;strokeColor=#82b366;" parent="1" vertex="1">
          <mxGeometry x="277.5" y="400" width="50" height="50" as="geometry" />
        </mxCell>
        <mxCell id="-VKP0Ubq2Tjm4UeMK1Hv-73" value="Econ/Stats Team" style="text;html=1;align=center;verticalAlign=middle;whiteSpace=wrap;rounded=0;" parent="1" vertex="1">
          <mxGeometry x="377.5" y="230" width="97.5" height="30" as="geometry" />
        </mxCell>
        <mxCell id="-VKP0Ubq2Tjm4UeMK1Hv-111" style="edgeStyle=orthogonalEdgeStyle;rounded=0;orthogonalLoop=1;jettySize=auto;html=1;exitX=1;exitY=0.5;exitDx=0;exitDy=0;entryX=0;entryY=0;entryDx=0;entryDy=0;curved=1;" parent="1" source="-VKP0Ubq2Tjm4UeMK1Hv-137" target="-VKP0Ubq2Tjm4UeMK1Hv-53" edge="1">
          <mxGeometry relative="1" as="geometry">
            <mxPoint x="451.25" y="205" as="sourcePoint" />
          </mxGeometry>
        </mxCell>
        <mxCell id="-VKP0Ubq2Tjm4UeMK1Hv-76" value="Econ/Stats Team" style="text;html=1;align=center;verticalAlign=middle;whiteSpace=wrap;rounded=0;" parent="1" vertex="1">
          <mxGeometry x="376.25" y="340" width="97.5" height="30" as="geometry" />
        </mxCell>
        <mxCell id="-VKP0Ubq2Tjm4UeMK1Hv-112" style="edgeStyle=orthogonalEdgeStyle;rounded=0;orthogonalLoop=1;jettySize=auto;html=1;exitX=1;exitY=0.5;exitDx=0;exitDy=0;entryX=0.029;entryY=0.373;entryDx=0;entryDy=0;entryPerimeter=0;curved=1;" parent="1" source="-VKP0Ubq2Tjm4UeMK1Hv-77" target="-VKP0Ubq2Tjm4UeMK1Hv-53" edge="1">
          <mxGeometry relative="1" as="geometry">
            <mxPoint x="510" y="330" as="targetPoint" />
          </mxGeometry>
        </mxCell>
        <mxCell id="-VKP0Ubq2Tjm4UeMK1Hv-77" value="&lt;b&gt;System&lt;/b&gt;" style="ellipse;whiteSpace=wrap;html=1;aspect=fixed;fillColor=#d5e8d4;strokeColor=#82b366;" parent="1" vertex="1">
          <mxGeometry x="400" y="290" width="50" height="50" as="geometry" />
        </mxCell>
        <mxCell id="-VKP0Ubq2Tjm4UeMK1Hv-79" value="Econ/Stats Team" style="text;html=1;align=center;verticalAlign=middle;whiteSpace=wrap;rounded=0;" parent="1" vertex="1">
          <mxGeometry x="375" y="560" width="97.5" height="30" as="geometry" />
        </mxCell>
        <mxCell id="-VKP0Ubq2Tjm4UeMK1Hv-80" value="&lt;b&gt;System&lt;/b&gt;" style="ellipse;whiteSpace=wrap;html=1;aspect=fixed;fillColor=#d5e8d4;strokeColor=#82b366;" parent="1" vertex="1">
          <mxGeometry x="398.75" y="510" width="50" height="50" as="geometry" />
        </mxCell>
        <mxCell id="-VKP0Ubq2Tjm4UeMK1Hv-82" value="Econ/Stats Team" style="text;html=1;align=center;verticalAlign=middle;whiteSpace=wrap;rounded=0;" parent="1" vertex="1">
          <mxGeometry x="375" y="450" width="97.5" height="30" as="geometry" />
        </mxCell>
        <mxCell id="-VKP0Ubq2Tjm4UeMK1Hv-113" style="edgeStyle=orthogonalEdgeStyle;rounded=0;orthogonalLoop=1;jettySize=auto;html=1;exitX=1;exitY=0.5;exitDx=0;exitDy=0;curved=1;" parent="1" source="-VKP0Ubq2Tjm4UeMK1Hv-83" edge="1">
          <mxGeometry relative="1" as="geometry">
            <mxPoint x="510" y="340" as="targetPoint" />
            <Array as="points">
              <mxPoint x="480" y="425" />
              <mxPoint x="480" y="340" />
            </Array>
          </mxGeometry>
        </mxCell>
        <mxCell id="-VKP0Ubq2Tjm4UeMK1Hv-83" value="&lt;b&gt;System&lt;/b&gt;" style="ellipse;whiteSpace=wrap;html=1;aspect=fixed;fillColor=#d5e8d4;strokeColor=#82b366;" parent="1" vertex="1">
          <mxGeometry x="398.75" y="400" width="50" height="50" as="geometry" />
        </mxCell>
        <mxCell id="-VKP0Ubq2Tjm4UeMK1Hv-84" value="&lt;b&gt;Input&lt;/b&gt;" style="text;html=1;align=center;verticalAlign=middle;whiteSpace=wrap;rounded=0;strokeColor=default;" parent="1" vertex="1">
          <mxGeometry x="25" y="190" width="60" height="30" as="geometry" />
        </mxCell>
        <mxCell id="-VKP0Ubq2Tjm4UeMK1Hv-95" style="edgeStyle=orthogonalEdgeStyle;rounded=0;orthogonalLoop=1;jettySize=auto;html=1;entryX=0;entryY=0.5;entryDx=0;entryDy=0;curved=1;" parent="1" source="-VKP0Ubq2Tjm4UeMK1Hv-85" target="-VKP0Ubq2Tjm4UeMK1Hv-34" edge="1">
          <mxGeometry relative="1" as="geometry" />
        </mxCell>
        <mxCell id="-VKP0Ubq2Tjm4UeMK1Hv-85" value="&lt;b&gt;Input&lt;/b&gt;" style="text;html=1;align=center;verticalAlign=middle;whiteSpace=wrap;rounded=0;strokeColor=default;" parent="1" vertex="1">
          <mxGeometry x="25" y="240" width="60" height="30" as="geometry" />
        </mxCell>
        <mxCell id="-VKP0Ubq2Tjm4UeMK1Hv-96" style="edgeStyle=orthogonalEdgeStyle;rounded=0;orthogonalLoop=1;jettySize=auto;html=1;entryX=0;entryY=0.5;entryDx=0;entryDy=0;curved=1;" parent="1" source="-VKP0Ubq2Tjm4UeMK1Hv-86" target="-VKP0Ubq2Tjm4UeMK1Hv-34" edge="1">
          <mxGeometry relative="1" as="geometry" />
        </mxCell>
        <mxCell id="-VKP0Ubq2Tjm4UeMK1Hv-86" value="&lt;b&gt;Input&lt;/b&gt;" style="text;html=1;align=center;verticalAlign=middle;whiteSpace=wrap;rounded=0;strokeColor=default;" parent="1" vertex="1">
          <mxGeometry x="25" y="290" width="60" height="30" as="geometry" />
        </mxCell>
        <mxCell id="-VKP0Ubq2Tjm4UeMK1Hv-97" style="edgeStyle=orthogonalEdgeStyle;rounded=0;orthogonalLoop=1;jettySize=auto;html=1;entryX=0;entryY=0.5;entryDx=0;entryDy=0;curved=1;" parent="1" source="-VKP0Ubq2Tjm4UeMK1Hv-87" target="-VKP0Ubq2Tjm4UeMK1Hv-34" edge="1">
          <mxGeometry relative="1" as="geometry" />
        </mxCell>
        <mxCell id="-VKP0Ubq2Tjm4UeMK1Hv-87" value="&lt;b&gt;Input&lt;/b&gt;" style="text;html=1;align=center;verticalAlign=middle;whiteSpace=wrap;rounded=0;strokeColor=default;" parent="1" vertex="1">
          <mxGeometry x="25" y="340" width="60" height="30" as="geometry" />
        </mxCell>
        <mxCell id="-VKP0Ubq2Tjm4UeMK1Hv-98" style="edgeStyle=orthogonalEdgeStyle;rounded=0;orthogonalLoop=1;jettySize=auto;html=1;entryX=0;entryY=0.5;entryDx=0;entryDy=0;curved=1;" parent="1" source="-VKP0Ubq2Tjm4UeMK1Hv-88" target="-VKP0Ubq2Tjm4UeMK1Hv-34" edge="1">
          <mxGeometry relative="1" as="geometry" />
        </mxCell>
        <mxCell id="-VKP0Ubq2Tjm4UeMK1Hv-88" value="&lt;b&gt;Input&lt;/b&gt;" style="text;html=1;align=center;verticalAlign=middle;whiteSpace=wrap;rounded=0;strokeColor=default;" parent="1" vertex="1">
          <mxGeometry x="25" y="390" width="60" height="30" as="geometry" />
        </mxCell>
        <mxCell id="-VKP0Ubq2Tjm4UeMK1Hv-100" style="edgeStyle=orthogonalEdgeStyle;rounded=0;orthogonalLoop=1;jettySize=auto;html=1;entryX=0;entryY=0.5;entryDx=0;entryDy=0;curved=1;" parent="1" source="-VKP0Ubq2Tjm4UeMK1Hv-89" target="-VKP0Ubq2Tjm4UeMK1Hv-34" edge="1">
          <mxGeometry relative="1" as="geometry" />
        </mxCell>
        <mxCell id="-VKP0Ubq2Tjm4UeMK1Hv-89" value="&lt;b&gt;Input&lt;/b&gt;" style="text;html=1;align=center;verticalAlign=middle;whiteSpace=wrap;rounded=0;strokeColor=default;" parent="1" vertex="1">
          <mxGeometry x="25" y="440" width="60" height="30" as="geometry" />
        </mxCell>
        <mxCell id="-VKP0Ubq2Tjm4UeMK1Hv-101" style="edgeStyle=orthogonalEdgeStyle;rounded=0;orthogonalLoop=1;jettySize=auto;html=1;curved=1;" parent="1" source="-VKP0Ubq2Tjm4UeMK1Hv-90" target="-VKP0Ubq2Tjm4UeMK1Hv-34" edge="1">
          <mxGeometry relative="1" as="geometry" />
        </mxCell>
        <mxCell id="-VKP0Ubq2Tjm4UeMK1Hv-90" value="&lt;b&gt;Input&lt;/b&gt;" style="text;html=1;align=center;verticalAlign=middle;whiteSpace=wrap;rounded=0;strokeColor=default;" parent="1" vertex="1">
          <mxGeometry x="25" y="490" width="60" height="30" as="geometry" />
        </mxCell>
        <mxCell id="-VKP0Ubq2Tjm4UeMK1Hv-102" style="edgeStyle=orthogonalEdgeStyle;rounded=0;orthogonalLoop=1;jettySize=auto;html=1;entryX=0;entryY=0.5;entryDx=0;entryDy=0;curved=1;" parent="1" source="-VKP0Ubq2Tjm4UeMK1Hv-91" target="-VKP0Ubq2Tjm4UeMK1Hv-34" edge="1">
          <mxGeometry relative="1" as="geometry" />
        </mxCell>
        <mxCell id="-VKP0Ubq2Tjm4UeMK1Hv-91" value="&lt;b&gt;Input&lt;/b&gt;" style="text;html=1;align=center;verticalAlign=middle;whiteSpace=wrap;rounded=0;strokeColor=default;" parent="1" vertex="1">
          <mxGeometry x="25" y="540" width="60" height="30" as="geometry" />
        </mxCell>
        <mxCell id="-VKP0Ubq2Tjm4UeMK1Hv-34" value="&lt;b&gt;System&lt;/b&gt;" style="ellipse;whiteSpace=wrap;html=1;fillColor=#d5e8d4;strokeColor=#82b366;" parent="1" vertex="1">
          <mxGeometry x="147.5" y="290" width="70" height="210" as="geometry" />
        </mxCell>
        <mxCell id="-VKP0Ubq2Tjm4UeMK1Hv-108" style="edgeStyle=orthogonalEdgeStyle;rounded=0;orthogonalLoop=1;jettySize=auto;html=1;exitX=1;exitY=0.5;exitDx=0;exitDy=0;entryX=0;entryY=0.5;entryDx=0;entryDy=0;" parent="1" source="-VKP0Ubq2Tjm4UeMK1Hv-65" target="-VKP0Ubq2Tjm4UeMK1Hv-77" edge="1">
          <mxGeometry relative="1" as="geometry" />
        </mxCell>
        <mxCell id="-VKP0Ubq2Tjm4UeMK1Hv-104" style="edgeStyle=orthogonalEdgeStyle;rounded=0;orthogonalLoop=1;jettySize=auto;html=1;entryX=0;entryY=0.5;entryDx=0;entryDy=0;curved=1;" parent="1" source="-VKP0Ubq2Tjm4UeMK1Hv-34" target="-VKP0Ubq2Tjm4UeMK1Hv-65" edge="1">
          <mxGeometry relative="1" as="geometry" />
        </mxCell>
        <mxCell id="-VKP0Ubq2Tjm4UeMK1Hv-105" style="edgeStyle=orthogonalEdgeStyle;rounded=0;orthogonalLoop=1;jettySize=auto;html=1;entryX=0;entryY=0.5;entryDx=0;entryDy=0;curved=1;" parent="1" source="-VKP0Ubq2Tjm4UeMK1Hv-34" target="-VKP0Ubq2Tjm4UeMK1Hv-71" edge="1">
          <mxGeometry relative="1" as="geometry" />
        </mxCell>
        <mxCell id="-VKP0Ubq2Tjm4UeMK1Hv-106" style="edgeStyle=orthogonalEdgeStyle;rounded=0;orthogonalLoop=1;jettySize=auto;html=1;entryX=0;entryY=0.5;entryDx=0;entryDy=0;curved=1;" parent="1" source="-VKP0Ubq2Tjm4UeMK1Hv-34" target="-VKP0Ubq2Tjm4UeMK1Hv-68" edge="1">
          <mxGeometry relative="1" as="geometry" />
        </mxCell>
        <mxCell id="-VKP0Ubq2Tjm4UeMK1Hv-103" style="edgeStyle=orthogonalEdgeStyle;rounded=0;orthogonalLoop=1;jettySize=auto;html=1;exitX=1;exitY=0.5;exitDx=0;exitDy=0;entryX=0;entryY=0.5;entryDx=0;entryDy=0;curved=1;" parent="1" source="-VKP0Ubq2Tjm4UeMK1Hv-34" target="-VKP0Ubq2Tjm4UeMK1Hv-137" edge="1">
          <mxGeometry relative="1" as="geometry">
            <mxPoint x="282.3499999999999" y="204.70000000000027" as="targetPoint" />
          </mxGeometry>
        </mxCell>
        <mxCell id="-VKP0Ubq2Tjm4UeMK1Hv-110" style="edgeStyle=orthogonalEdgeStyle;rounded=0;orthogonalLoop=1;jettySize=auto;html=1;exitX=1;exitY=0.5;exitDx=0;exitDy=0;entryX=0;entryY=0.5;entryDx=0;entryDy=0;" parent="1" source="-VKP0Ubq2Tjm4UeMK1Hv-68" target="-VKP0Ubq2Tjm4UeMK1Hv-80" edge="1">
          <mxGeometry relative="1" as="geometry" />
        </mxCell>
        <mxCell id="-VKP0Ubq2Tjm4UeMK1Hv-109" style="edgeStyle=orthogonalEdgeStyle;rounded=0;orthogonalLoop=1;jettySize=auto;html=1;exitX=1;exitY=0.5;exitDx=0;exitDy=0;entryX=0;entryY=0.5;entryDx=0;entryDy=0;" parent="1" source="-VKP0Ubq2Tjm4UeMK1Hv-71" target="-VKP0Ubq2Tjm4UeMK1Hv-83" edge="1">
          <mxGeometry relative="1" as="geometry" />
        </mxCell>
        <mxCell id="-VKP0Ubq2Tjm4UeMK1Hv-114" style="edgeStyle=orthogonalEdgeStyle;rounded=0;orthogonalLoop=1;jettySize=auto;html=1;exitX=1;exitY=0.5;exitDx=0;exitDy=0;entryX=0;entryY=1;entryDx=0;entryDy=0;curved=1;" parent="1" source="-VKP0Ubq2Tjm4UeMK1Hv-80" target="-VKP0Ubq2Tjm4UeMK1Hv-53" edge="1">
          <mxGeometry relative="1" as="geometry">
            <Array as="points">
              <mxPoint x="490" y="535" />
              <mxPoint x="490" y="452" />
            </Array>
          </mxGeometry>
        </mxCell>
        <mxCell id="-VKP0Ubq2Tjm4UeMK1Hv-137" value="&lt;b&gt;System&lt;/b&gt;" style="ellipse;whiteSpace=wrap;html=1;fillColor=#d5e8d4;strokeColor=#82b366;" parent="1" vertex="1">
          <mxGeometry x="287.81" y="182.5" width="150.62" height="45" as="geometry" />
        </mxCell>
        <mxCell id="UkhPYPizGh5rHL5iVSc6-2" value="" style="rounded=1;whiteSpace=wrap;html=1;fillColor=#fff2cc;strokeColor=#d6b656;" parent="1" vertex="1">
          <mxGeometry x="130" y="160" width="100" height="100" as="geometry" />
        </mxCell>
        <mxCell id="UkhPYPizGh5rHL5iVSc6-3" value="" style="edgeStyle=orthogonalEdgeStyle;rounded=0;orthogonalLoop=1;jettySize=auto;html=1;curved=1;entryX=0;entryY=0.5;entryDx=0;entryDy=0;" parent="1" source="-VKP0Ubq2Tjm4UeMK1Hv-84" target="UkhPYPizGh5rHL5iVSc6-6" edge="1">
          <mxGeometry relative="1" as="geometry">
            <mxPoint x="85" y="205" as="sourcePoint" />
            <mxPoint x="183" y="290" as="targetPoint" />
          </mxGeometry>
        </mxCell>
        <mxCell id="UkhPYPizGh5rHL5iVSc6-4" value="" style="edgeStyle=orthogonalEdgeStyle;rounded=1;orthogonalLoop=1;jettySize=auto;html=1;exitX=1;exitY=0.5;exitDx=0;exitDy=0;curved=0;" parent="1" source="UkhPYPizGh5rHL5iVSc6-6" target="-VKP0Ubq2Tjm4UeMK1Hv-137" edge="1">
          <mxGeometry relative="1" as="geometry" />
        </mxCell>
        <mxCell id="UkhPYPizGh5rHL5iVSc6-6" value="&lt;b&gt;System&lt;/b&gt;" style="ellipse;whiteSpace=wrap;html=1;aspect=fixed;fillColor=#d5e8d4;strokeColor=#82b366;" parent="1" vertex="1">
          <mxGeometry x="155" y="185" width="50" height="50" as="geometry" />
        </mxCell>
        <mxCell id="UkhPYPizGh5rHL5iVSc6-7" value="Econ/Stats Team" style="text;html=1;align=center;verticalAlign=middle;whiteSpace=wrap;rounded=0;" parent="1" vertex="1">
          <mxGeometry x="132.5" y="230" width="97.5" height="30" as="geometry" />
        </mxCell>
        <mxCell id="i8PoWEXiR3L_Ca3g5uL3-1" value="" style="endArrow=none;dashed=1;html=1;dashPattern=1 1;strokeWidth=3;rounded=0;fillColor=#f8cecc;strokeColor=#B85450;" edge="1" parent="1">
          <mxGeometry width="50" height="50" relative="1" as="geometry">
            <mxPoint x="5" y="230" as="sourcePoint" />
            <mxPoint x="110" y="230" as="targetPoint" />
          </mxGeometry>
        </mxCell>
        <mxCell id="i8PoWEXiR3L_Ca3g5uL3-2" value="" style="endArrow=none;dashed=1;html=1;dashPattern=1 1;strokeWidth=3;rounded=0;fillColor=#f8cecc;strokeColor=#B85450;" edge="1" parent="1">
          <mxGeometry width="50" height="50" relative="1" as="geometry">
            <mxPoint x="5" y="610" as="sourcePoint" />
            <mxPoint x="840" y="610" as="targetPoint" />
          </mxGeometry>
        </mxCell>
        <mxCell id="i8PoWEXiR3L_Ca3g5uL3-3" value="" style="endArrow=none;dashed=1;html=1;dashPattern=1 1;strokeWidth=3;rounded=0;fillColor=#f8cecc;strokeColor=#B85450;" edge="1" parent="1">
          <mxGeometry width="50" height="50" relative="1" as="geometry">
            <mxPoint y="610" as="sourcePoint" />
            <mxPoint y="230" as="targetPoint" />
          </mxGeometry>
        </mxCell>
        <mxCell id="i8PoWEXiR3L_Ca3g5uL3-4" value="" style="endArrow=none;dashed=1;html=1;dashPattern=1 1;strokeWidth=3;rounded=0;fillColor=#f8cecc;strokeColor=#B85450;" edge="1" parent="1">
          <mxGeometry width="50" height="50" relative="1" as="geometry">
            <mxPoint x="840" y="607.5" as="sourcePoint" />
            <mxPoint x="840" y="160" as="targetPoint" />
          </mxGeometry>
        </mxCell>
        <mxCell id="i8PoWEXiR3L_Ca3g5uL3-5" value="" style="endArrow=none;dashed=1;html=1;dashPattern=1 1;strokeWidth=3;rounded=0;fillColor=#f8cecc;strokeColor=#B85450;" edge="1" parent="1">
          <mxGeometry width="50" height="50" relative="1" as="geometry">
            <mxPoint x="490" y="159" as="sourcePoint" />
            <mxPoint x="840" y="160" as="targetPoint" />
          </mxGeometry>
        </mxCell>
        <mxCell id="i8PoWEXiR3L_Ca3g5uL3-6" value="" style="endArrow=none;dashed=1;html=1;dashPattern=1 3;strokeWidth=2;rounded=0;fillColor=#f8cecc;strokeColor=#b85450;" edge="1" parent="1">
          <mxGeometry width="50" height="50" relative="1" as="geometry">
            <mxPoint x="485" y="270" as="sourcePoint" />
            <mxPoint x="485" y="160" as="targetPoint" />
          </mxGeometry>
        </mxCell>
        <mxCell id="i8PoWEXiR3L_Ca3g5uL3-7" value="" style="endArrow=none;dashed=1;html=1;dashPattern=1 1;strokeWidth=3;rounded=0;fillColor=#f8cecc;strokeColor=#B85450;" edge="1" parent="1">
          <mxGeometry width="50" height="50" relative="1" as="geometry">
            <mxPoint x="110" y="268.82" as="sourcePoint" />
            <mxPoint x="480" y="269" as="targetPoint" />
          </mxGeometry>
        </mxCell>
        <mxCell id="i8PoWEXiR3L_Ca3g5uL3-8" value="" style="endArrow=none;dashed=1;html=1;dashPattern=1 1;strokeWidth=3;rounded=0;fillColor=#f8cecc;strokeColor=#B85450;" edge="1" parent="1">
          <mxGeometry width="50" height="50" relative="1" as="geometry">
            <mxPoint x="110" y="270" as="sourcePoint" />
            <mxPoint x="110" y="230" as="targetPoint" />
          </mxGeometry>
        </mxCell>
      </root>
    </mxGraphModel>
  </diagram>
</mxfile>
